<?xml version="1.0" encoding="UTF-8" standalone="no"?>
<!DOCTYPE svg PUBLIC "-//W3C//DTD SVG 1.1//EN"
 "http://www.w3.org/Graphics/SVG/1.1/DTD/svg11.dtd">
<!-- Generated by graphviz version 2.44.1 (0)
 -->
<!-- Title: cson Pages: 1 -->
<svg width="3568pt" height="129pt"
 viewBox="0.00 0.00 3567.60 128.93" xmlns="http://www.w3.org/2000/svg" xmlns:xlink="http://www.w3.org/1999/xlink">
<g id="graph0" class="graph" transform="scale(1 1) rotate(0) translate(4 124.93)">
<title>cson</title>
<polygon fill="white" stroke="transparent" points="-4,4 -4,-124.93 3563.6,-124.93 3563.6,4 -4,4"/>
<!-- ENTRY -->
<g id="node1" class="node">
<title>ENTRY</title>
<ellipse fill="black" stroke="black" cx="1.8" cy="-47.43" rx="1.8" ry="1.8"/>
</g>
<!-- 1 -->
<g id="node4" class="node">
<title>1</title>
<ellipse fill="none" stroke="black" cx="99.1" cy="-28.43" rx="23.5" ry="23.5"/>
<text text-anchor="middle" x="99.1" y="-24.73" font-family="Times,serif" font-size="14.00">1</text>
</g>
<!-- ENTRY&#45;&gt;1 -->
<g id="edge35" class="edge">
<title>ENTRY&#45;&gt;1</title>
<path fill="none" stroke="black" d="M3.87,-47.21C9.98,-46 41.06,-39.8 65.88,-34.85"/>
<polygon fill="black" stroke="black" points="66.57,-38.28 75.7,-32.89 65.2,-31.42 66.57,-38.28"/>
<text text-anchor="middle" x="39.6" y="-46.23" font-family="Times,serif" font-size="14.00">IN</text>
</g>
<!-- en_1 -->
<g id="node2" class="node">
<title>en_1</title>
<ellipse fill="black" stroke="black" cx="1.8" cy="-9.43" rx="1.8" ry="1.8"/>
</g>
<!-- en_1&#45;&gt;1 -->
<g id="edge36" class="edge">
<title>en_1&#45;&gt;1</title>
<path fill="none" stroke="black" d="M4.16,-9.61C10.35,-10.45 36.44,-14.09 57.6,-18.43 60.3,-18.98 63.09,-19.59 65.89,-20.23"/>
<polygon fill="black" stroke="black" points="65.35,-23.7 75.89,-22.61 66.97,-16.89 65.35,-23.7"/>
<text text-anchor="middle" x="39.6" y="-22.23" font-family="Times,serif" font-size="14.00">main</text>
</g>
<!-- 30 -->
<g id="node3" class="node">
<title>30</title>
<ellipse fill="none" stroke="black" cx="3532.1" cy="-28.43" rx="23.5" ry="23.5"/>
<ellipse fill="none" stroke="black" cx="3532.1" cy="-28.43" rx="27.5" ry="27.5"/>
<text text-anchor="middle" x="3532.1" y="-24.73" font-family="Times,serif" font-size="14.00">30</text>
</g>
<!-- 2 -->
<g id="node5" class="node">
<title>2</title>
<ellipse fill="none" stroke="black" cx="199.1" cy="-28.43" rx="23.5" ry="23.5"/>
<text text-anchor="middle" x="199.1" y="-24.73" font-family="Times,serif" font-size="14.00">2</text>
</g>
<!-- 1&#45;&gt;2 -->
<g id="edge1" class="edge">
<title>1&#45;&gt;2</title>
<path fill="none" stroke="black" d="M122.83,-28.43C135.45,-28.43 151.36,-28.43 165.3,-28.43"/>
<polygon fill="black" stroke="black" points="165.49,-31.93 175.49,-28.43 165.49,-24.93 165.49,-31.93"/>
<text text-anchor="middle" x="149.1" y="-32.23" font-family="Times,serif" font-size="14.00">&#39;{&#39;</text>
</g>
<!-- 3 -->
<g id="node6" class="node">
<title>3</title>
<ellipse fill="none" stroke="black" cx="297.1" cy="-28.43" rx="23.5" ry="23.5"/>
<text text-anchor="middle" x="297.1" y="-24.73" font-family="Times,serif" font-size="14.00">3</text>
</g>
<!-- 2&#45;&gt;3 -->
<g id="edge2" class="edge">
<title>2&#45;&gt;3</title>
<path fill="none" stroke="black" d="M222.85,-28.43C234.93,-28.43 249.98,-28.43 263.3,-28.43"/>
<polygon fill="black" stroke="black" points="263.51,-31.93 273.51,-28.43 263.51,-24.93 263.51,-31.93"/>
<text text-anchor="middle" x="248.1" y="-32.23" font-family="Times,serif" font-size="14.00">&#39;&quot;&#39;</text>
</g>
<!-- 4 -->
<g id="node7" class="node">
<title>4</title>
<ellipse fill="none" stroke="black" cx="393.1" cy="-28.43" rx="23.5" ry="23.5"/>
<text text-anchor="middle" x="393.1" y="-24.73" font-family="Times,serif" font-size="14.00">4</text>
</g>
<!-- 3&#45;&gt;4 -->
<g id="edge3" class="edge">
<title>3&#45;&gt;4</title>
<path fill="none" stroke="black" d="M320.85,-28.43C332.4,-28.43 346.64,-28.43 359.34,-28.43"/>
<polygon fill="black" stroke="black" points="359.55,-31.93 369.55,-28.43 359.55,-24.93 359.55,-31.93"/>
<text text-anchor="middle" x="345.1" y="-32.23" font-family="Times,serif" font-size="14.00">&#39;i&#39;</text>
</g>
<!-- 5 -->
<g id="node8" class="node">
<title>5</title>
<ellipse fill="none" stroke="black" cx="490.1" cy="-28.43" rx="23.5" ry="23.5"/>
<text text-anchor="middle" x="490.1" y="-24.73" font-family="Times,serif" font-size="14.00">5</text>
</g>
<!-- 4&#45;&gt;5 -->
<g id="edge4" class="edge">
<title>4&#45;&gt;5</title>
<path fill="none" stroke="black" d="M416.61,-28.43C428.48,-28.43 443.25,-28.43 456.35,-28.43"/>
<polygon fill="black" stroke="black" points="456.42,-31.93 466.42,-28.43 456.42,-24.93 456.42,-31.93"/>
<text text-anchor="middle" x="441.6" y="-32.23" font-family="Times,serif" font-size="14.00">&#39;t&#39;</text>
</g>
<!-- 6 -->
<g id="node9" class="node">
<title>6</title>
<ellipse fill="none" stroke="black" cx="589.1" cy="-28.43" rx="23.5" ry="23.5"/>
<text text-anchor="middle" x="589.1" y="-24.73" font-family="Times,serif" font-size="14.00">6</text>
</g>
<!-- 5&#45;&gt;6 -->
<g id="edge5" class="edge">
<title>5&#45;&gt;6</title>
<path fill="none" stroke="black" d="M514.09,-28.43C526.29,-28.43 541.5,-28.43 554.96,-28.43"/>
<polygon fill="black" stroke="black" points="555.28,-31.93 565.28,-28.43 555.28,-24.93 555.28,-31.93"/>
<text text-anchor="middle" x="539.6" y="-32.23" font-family="Times,serif" font-size="14.00">&#39;e&#39;</text>
</g>
<!-- 7 -->
<g id="node10" class="node">
<title>7</title>
<ellipse fill="none" stroke="black" cx="694.1" cy="-28.43" rx="23.5" ry="23.5"/>
<text text-anchor="middle" x="694.1" y="-24.73" font-family="Times,serif" font-size="14.00">7</text>
</g>
<!-- 6&#45;&gt;7 -->
<g id="edge6" class="edge">
<title>6&#45;&gt;7</title>
<path fill="none" stroke="black" d="M612.7,-28.43C626.66,-28.43 644.79,-28.43 660.31,-28.43"/>
<polygon fill="black" stroke="black" points="660.55,-31.93 670.55,-28.43 660.55,-24.93 660.55,-31.93"/>
<text text-anchor="middle" x="641.6" y="-32.23" font-family="Times,serif" font-size="14.00">&#39;m&#39;</text>
</g>
<!-- 8 -->
<g id="node11" class="node">
<title>8</title>
<ellipse fill="none" stroke="black" cx="793.1" cy="-28.43" rx="23.5" ry="23.5"/>
<text text-anchor="middle" x="793.1" y="-24.73" font-family="Times,serif" font-size="14.00">8</text>
</g>
<!-- 7&#45;&gt;8 -->
<g id="edge7" class="edge">
<title>7&#45;&gt;8</title>
<path fill="none" stroke="black" d="M718.09,-28.43C730.29,-28.43 745.5,-28.43 758.96,-28.43"/>
<polygon fill="black" stroke="black" points="759.28,-31.93 769.28,-28.43 759.28,-24.93 759.28,-31.93"/>
<text text-anchor="middle" x="743.6" y="-32.23" font-family="Times,serif" font-size="14.00">&#39;s&#39;</text>
</g>
<!-- 9 -->
<g id="node12" class="node">
<title>9</title>
<ellipse fill="none" stroke="black" cx="891.1" cy="-28.43" rx="23.5" ry="23.5"/>
<text text-anchor="middle" x="891.1" y="-24.73" font-family="Times,serif" font-size="14.00">9</text>
</g>
<!-- 8&#45;&gt;9 -->
<g id="edge8" class="edge">
<title>8&#45;&gt;9</title>
<path fill="none" stroke="black" d="M816.85,-28.43C828.93,-28.43 843.98,-28.43 857.3,-28.43"/>
<polygon fill="black" stroke="black" points="857.51,-31.93 867.51,-28.43 857.51,-24.93 857.51,-31.93"/>
<text text-anchor="middle" x="842.1" y="-32.23" font-family="Times,serif" font-size="14.00">&#39;&quot;&#39;</text>
</g>
<!-- 10 -->
<g id="node13" class="node">
<title>10</title>
<ellipse fill="none" stroke="black" cx="987.1" cy="-28.43" rx="23.5" ry="23.5"/>
<text text-anchor="middle" x="987.1" y="-24.73" font-family="Times,serif" font-size="14.00">10</text>
</g>
<!-- 9&#45;&gt;10 -->
<g id="edge9" class="edge">
<title>9&#45;&gt;10</title>
<path fill="none" stroke="black" d="M914.85,-28.43C926.4,-28.43 940.64,-28.43 953.34,-28.43"/>
<polygon fill="black" stroke="black" points="953.55,-31.93 963.55,-28.43 953.55,-24.93 953.55,-31.93"/>
<text text-anchor="middle" x="939.1" y="-32.23" font-family="Times,serif" font-size="14.00">&#39;:&#39;</text>
</g>
<!-- 11 -->
<g id="node14" class="node">
<title>11</title>
<ellipse fill="none" stroke="black" cx="1083.1" cy="-28.43" rx="23.5" ry="23.5"/>
<text text-anchor="middle" x="1083.1" y="-24.73" font-family="Times,serif" font-size="14.00">11</text>
</g>
<!-- 10&#45;&gt;11 -->
<g id="edge10" class="edge">
<title>10&#45;&gt;11</title>
<path fill="none" stroke="black" d="M1010.85,-28.43C1022.4,-28.43 1036.64,-28.43 1049.34,-28.43"/>
<polygon fill="black" stroke="black" points="1049.55,-31.93 1059.55,-28.43 1049.55,-24.93 1049.55,-31.93"/>
<text text-anchor="middle" x="1035.1" y="-32.23" font-family="Times,serif" font-size="14.00">&#39;[&#39;</text>
</g>
<!-- 12 -->
<g id="node15" class="node">
<title>12</title>
<ellipse fill="none" stroke="black" cx="1179.1" cy="-64.43" rx="23.5" ry="23.5"/>
<text text-anchor="middle" x="1179.1" y="-60.73" font-family="Times,serif" font-size="14.00">12</text>
</g>
<!-- 11&#45;&gt;12 -->
<g id="edge11" class="edge">
<title>11&#45;&gt;12</title>
<path fill="none" stroke="black" d="M1105.43,-36.6C1117.81,-41.34 1133.62,-47.39 1147.32,-52.64"/>
<polygon fill="black" stroke="black" points="1146.26,-55.98 1156.85,-56.29 1148.77,-49.45 1146.26,-55.98"/>
<text text-anchor="middle" x="1131.1" y="-52.23" font-family="Times,serif" font-size="14.00">&#39;[&#39;</text>
</g>
<!-- 13 -->
<g id="node16" class="node">
<title>13</title>
<ellipse fill="none" stroke="black" cx="1392.1" cy="-64.43" rx="23.5" ry="23.5"/>
<text text-anchor="middle" x="1392.1" y="-60.73" font-family="Times,serif" font-size="14.00">13</text>
</g>
<!-- 12&#45;&gt;13 -->
<g id="edge12" class="edge">
<title>12&#45;&gt;13</title>
<path fill="none" stroke="black" d="M1202.68,-64.43C1240.1,-64.43 1315.12,-64.43 1358.35,-64.43"/>
<polygon fill="black" stroke="black" points="1358.36,-67.93 1368.36,-64.43 1358.36,-60.93 1358.36,-67.93"/>
<text text-anchor="middle" x="1285.6" y="-68.23" font-family="Times,serif" font-size="14.00">&#39;0&#39;..&#39;9&#39; / push_digit</text>
</g>
<!-- 13&#45;&gt;13 -->
<g id="edge14" class="edge">
<title>13&#45;&gt;13</title>
<path fill="none" stroke="black" d="M1376.71,-82.34C1372.38,-94.3 1377.51,-105.93 1392.1,-105.93 1402.47,-105.93 1408.06,-100.05 1408.87,-92.35"/>
<polygon fill="black" stroke="black" points="1412.32,-91.77 1407.49,-82.34 1405.39,-92.73 1412.32,-91.77"/>
<text text-anchor="middle" x="1392.1" y="-109.73" font-family="Times,serif" font-size="14.00">&#39;0&#39;..&#39;9&#39; / push_digit</text>
</g>
<!-- 14 -->
<g id="node17" class="node">
<title>14</title>
<ellipse fill="none" stroke="black" cx="1575.1" cy="-64.43" rx="23.5" ry="23.5"/>
<text text-anchor="middle" x="1575.1" y="-60.73" font-family="Times,serif" font-size="14.00">14</text>
</g>
<!-- 13&#45;&gt;14 -->
<g id="edge13" class="edge">
<title>13&#45;&gt;14</title>
<path fill="none" stroke="black" d="M1415.66,-64.43C1447.31,-64.43 1505.1,-64.43 1541.45,-64.43"/>
<polygon fill="black" stroke="black" points="1541.54,-67.93 1551.54,-64.43 1541.54,-60.93 1541.54,-67.93"/>
<text text-anchor="middle" x="1483.6" y="-68.23" font-family="Times,serif" font-size="14.00">&#39;,&#39; / item_start</text>
</g>
<!-- 15 -->
<g id="node18" class="node">
<title>15</title>
<ellipse fill="none" stroke="black" cx="1788.1" cy="-64.43" rx="23.5" ry="23.5"/>
<text text-anchor="middle" x="1788.1" y="-60.73" font-family="Times,serif" font-size="14.00">15</text>
</g>
<!-- 14&#45;&gt;15 -->
<g id="edge15" class="edge">
<title>14&#45;&gt;15</title>
<path fill="none" stroke="black" d="M1598.68,-64.43C1636.1,-64.43 1711.12,-64.43 1754.35,-64.43"/>
<polygon fill="black" stroke="black" points="1754.36,-67.93 1764.36,-64.43 1754.36,-60.93 1754.36,-67.93"/>
<text text-anchor="middle" x="1681.6" y="-68.23" font-family="Times,serif" font-size="14.00">&#39;0&#39;..&#39;9&#39; / push_digit</text>
</g>
<!-- 15&#45;&gt;15 -->
<g id="edge16" class="edge">
<title>15&#45;&gt;15</title>
<path fill="none" stroke="black" d="M1773.25,-82.78C1769.38,-94.57 1774.33,-105.93 1788.1,-105.93 1797.78,-105.93 1803.11,-100.31 1804.07,-92.88"/>
<polygon fill="black" stroke="black" points="1807.53,-92.33 1802.95,-82.78 1800.57,-93.1 1807.53,-92.33"/>
<text text-anchor="middle" x="1788.1" y="-109.73" font-family="Times,serif" font-size="14.00">&#39;0&#39;..&#39;9&#39; / push_digit</text>
</g>
<!-- 16 -->
<g id="node19" class="node">
<title>16</title>
<ellipse fill="none" stroke="black" cx="1963.1" cy="-28.43" rx="23.5" ry="23.5"/>
<text text-anchor="middle" x="1963.1" y="-24.73" font-family="Times,serif" font-size="14.00">16</text>
</g>
<!-- 15&#45;&gt;16 -->
<g id="edge17" class="edge">
<title>15&#45;&gt;16</title>
<path fill="none" stroke="black" d="M1811.36,-59.8C1841.47,-53.53 1895.35,-42.32 1929.88,-35.13"/>
<polygon fill="black" stroke="black" points="1930.85,-38.51 1939.92,-33.04 1929.42,-31.65 1930.85,-38.51"/>
<text text-anchor="middle" x="1875.6" y="-59.23" font-family="Times,serif" font-size="14.00">&#39;]&#39; / item_end</text>
</g>
<!-- 16&#45;&gt;11 -->
<g id="edge18" class="edge">
<title>16&#45;&gt;11</title>
<path fill="none" stroke="black" d="M1939.77,-25.03C1906.87,-20.34 1843.39,-12.43 1789.1,-12.43 1178.1,-12.43 1178.1,-12.43 1178.1,-12.43 1157.11,-12.43 1133.85,-16.35 1115.71,-20.32"/>
<polygon fill="black" stroke="black" points="1114.91,-16.91 1105.95,-22.56 1116.48,-23.73 1114.91,-16.91"/>
<text text-anchor="middle" x="1483.6" y="-16.23" font-family="Times,serif" font-size="14.00">&#39;,&#39;</text>
</g>
<!-- 17 -->
<g id="node20" class="node">
<title>17</title>
<ellipse fill="none" stroke="black" cx="2059.1" cy="-28.43" rx="23.5" ry="23.5"/>
<text text-anchor="middle" x="2059.1" y="-24.73" font-family="Times,serif" font-size="14.00">17</text>
</g>
<!-- 16&#45;&gt;17 -->
<g id="edge19" class="edge">
<title>16&#45;&gt;17</title>
<path fill="none" stroke="black" d="M1986.85,-28.43C1998.4,-28.43 2012.64,-28.43 2025.34,-28.43"/>
<polygon fill="black" stroke="black" points="2025.55,-31.93 2035.55,-28.43 2025.55,-24.93 2025.55,-31.93"/>
<text text-anchor="middle" x="2011.1" y="-32.23" font-family="Times,serif" font-size="14.00">&#39;]&#39;</text>
</g>
<!-- 18 -->
<g id="node21" class="node">
<title>18</title>
<ellipse fill="none" stroke="black" cx="2155.1" cy="-28.43" rx="23.5" ry="23.5"/>
<text text-anchor="middle" x="2155.1" y="-24.73" font-family="Times,serif" font-size="14.00">18</text>
</g>
<!-- 17&#45;&gt;18 -->
<g id="edge20" class="edge">
<title>17&#45;&gt;18</title>
<path fill="none" stroke="black" d="M2082.85,-28.43C2094.4,-28.43 2108.64,-28.43 2121.34,-28.43"/>
<polygon fill="black" stroke="black" points="2121.55,-31.93 2131.55,-28.43 2121.55,-24.93 2121.55,-31.93"/>
<text text-anchor="middle" x="2107.1" y="-32.23" font-family="Times,serif" font-size="14.00">&#39;,&#39;</text>
</g>
<!-- 19 -->
<g id="node22" class="node">
<title>19</title>
<ellipse fill="none" stroke="black" cx="2253.1" cy="-28.43" rx="23.5" ry="23.5"/>
<text text-anchor="middle" x="2253.1" y="-24.73" font-family="Times,serif" font-size="14.00">19</text>
</g>
<!-- 18&#45;&gt;19 -->
<g id="edge21" class="edge">
<title>18&#45;&gt;19</title>
<path fill="none" stroke="black" d="M2178.85,-28.43C2190.93,-28.43 2205.98,-28.43 2219.3,-28.43"/>
<polygon fill="black" stroke="black" points="2219.51,-31.93 2229.51,-28.43 2219.51,-24.93 2219.51,-31.93"/>
<text text-anchor="middle" x="2204.1" y="-32.23" font-family="Times,serif" font-size="14.00">&#39;&quot;&#39;</text>
</g>
<!-- 20 -->
<g id="node23" class="node">
<title>20</title>
<ellipse fill="none" stroke="black" cx="2350.1" cy="-28.43" rx="23.5" ry="23.5"/>
<text text-anchor="middle" x="2350.1" y="-24.73" font-family="Times,serif" font-size="14.00">20</text>
</g>
<!-- 19&#45;&gt;20 -->
<g id="edge22" class="edge">
<title>19&#45;&gt;20</title>
<path fill="none" stroke="black" d="M2276.61,-28.43C2288.48,-28.43 2303.25,-28.43 2316.35,-28.43"/>
<polygon fill="black" stroke="black" points="2316.42,-31.93 2326.42,-28.43 2316.42,-24.93 2316.42,-31.93"/>
<text text-anchor="middle" x="2301.6" y="-32.23" font-family="Times,serif" font-size="14.00">&#39;t&#39;</text>
</g>
<!-- 21 -->
<g id="node24" class="node">
<title>21</title>
<ellipse fill="none" stroke="black" cx="2448.1" cy="-28.43" rx="23.5" ry="23.5"/>
<text text-anchor="middle" x="2448.1" y="-24.73" font-family="Times,serif" font-size="14.00">21</text>
</g>
<!-- 20&#45;&gt;21 -->
<g id="edge23" class="edge">
<title>20&#45;&gt;21</title>
<path fill="none" stroke="black" d="M2373.85,-28.43C2385.93,-28.43 2400.98,-28.43 2414.3,-28.43"/>
<polygon fill="black" stroke="black" points="2414.51,-31.93 2424.51,-28.43 2414.51,-24.93 2414.51,-31.93"/>
<text text-anchor="middle" x="2399.1" y="-32.23" font-family="Times,serif" font-size="14.00">&#39;r&#39;</text>
</g>
<!-- 22 -->
<g id="node25" class="node">
<title>22</title>
<ellipse fill="none" stroke="black" cx="2547.1" cy="-28.43" rx="23.5" ry="23.5"/>
<text text-anchor="middle" x="2547.1" y="-24.73" font-family="Times,serif" font-size="14.00">22</text>
</g>
<!-- 21&#45;&gt;22 -->
<g id="edge24" class="edge">
<title>21&#45;&gt;22</title>
<path fill="none" stroke="black" d="M2472.09,-28.43C2484.29,-28.43 2499.5,-28.43 2512.96,-28.43"/>
<polygon fill="black" stroke="black" points="2513.28,-31.93 2523.28,-28.43 2513.28,-24.93 2513.28,-31.93"/>
<text text-anchor="middle" x="2497.6" y="-32.23" font-family="Times,serif" font-size="14.00">&#39;a&#39;</text>
</g>
<!-- 23 -->
<g id="node26" class="node">
<title>23</title>
<ellipse fill="none" stroke="black" cx="2646.1" cy="-28.43" rx="23.5" ry="23.5"/>
<text text-anchor="middle" x="2646.1" y="-24.73" font-family="Times,serif" font-size="14.00">23</text>
</g>
<!-- 22&#45;&gt;23 -->
<g id="edge25" class="edge">
<title>22&#45;&gt;23</title>
<path fill="none" stroke="black" d="M2571.09,-28.43C2583.29,-28.43 2598.5,-28.43 2611.96,-28.43"/>
<polygon fill="black" stroke="black" points="2612.28,-31.93 2622.28,-28.43 2612.28,-24.93 2612.28,-31.93"/>
<text text-anchor="middle" x="2596.6" y="-32.23" font-family="Times,serif" font-size="14.00">&#39;c&#39;</text>
</g>
<!-- 24 -->
<g id="node27" class="node">
<title>24</title>
<ellipse fill="none" stroke="black" cx="2745.1" cy="-28.43" rx="23.5" ry="23.5"/>
<text text-anchor="middle" x="2745.1" y="-24.73" font-family="Times,serif" font-size="14.00">24</text>
</g>
<!-- 23&#45;&gt;24 -->
<g id="edge26" class="edge">
<title>23&#45;&gt;24</title>
<path fill="none" stroke="black" d="M2670.09,-28.43C2682.29,-28.43 2697.5,-28.43 2710.96,-28.43"/>
<polygon fill="black" stroke="black" points="2711.28,-31.93 2721.28,-28.43 2711.28,-24.93 2711.28,-31.93"/>
<text text-anchor="middle" x="2695.6" y="-32.23" font-family="Times,serif" font-size="14.00">&#39;k&#39;</text>
</g>
<!-- 25 -->
<g id="node28" class="node">
<title>25</title>
<ellipse fill="none" stroke="black" cx="2843.1" cy="-28.43" rx="23.5" ry="23.5"/>
<text text-anchor="middle" x="2843.1" y="-24.73" font-family="Times,serif" font-size="14.00">25</text>
</g>
<!-- 24&#45;&gt;25 -->
<g id="edge27" class="edge">
<title>24&#45;&gt;25</title>
<path fill="none" stroke="black" d="M2768.85,-28.43C2780.93,-28.43 2795.98,-28.43 2809.3,-28.43"/>
<polygon fill="black" stroke="black" points="2809.51,-31.93 2819.51,-28.43 2809.51,-24.93 2809.51,-31.93"/>
<text text-anchor="middle" x="2794.1" y="-32.23" font-family="Times,serif" font-size="14.00">&#39;&quot;&#39;</text>
</g>
<!-- 26 -->
<g id="node29" class="node">
<title>26</title>
<ellipse fill="none" stroke="black" cx="2939.1" cy="-28.43" rx="23.5" ry="23.5"/>
<text text-anchor="middle" x="2939.1" y="-24.73" font-family="Times,serif" font-size="14.00">26</text>
</g>
<!-- 25&#45;&gt;26 -->
<g id="edge28" class="edge">
<title>25&#45;&gt;26</title>
<path fill="none" stroke="black" d="M2866.85,-28.43C2878.4,-28.43 2892.64,-28.43 2905.34,-28.43"/>
<polygon fill="black" stroke="black" points="2905.55,-31.93 2915.55,-28.43 2905.55,-24.93 2905.55,-31.93"/>
<text text-anchor="middle" x="2891.1" y="-32.23" font-family="Times,serif" font-size="14.00">&#39;:&#39;</text>
</g>
<!-- 27 -->
<g id="node30" class="node">
<title>27</title>
<ellipse fill="none" stroke="black" cx="3035.1" cy="-28.43" rx="23.5" ry="23.5"/>
<text text-anchor="middle" x="3035.1" y="-24.73" font-family="Times,serif" font-size="14.00">27</text>
</g>
<!-- 26&#45;&gt;27 -->
<g id="edge29" class="edge">
<title>26&#45;&gt;27</title>
<path fill="none" stroke="black" d="M2962.85,-28.43C2974.4,-28.43 2988.64,-28.43 3001.34,-28.43"/>
<polygon fill="black" stroke="black" points="3001.55,-31.93 3011.55,-28.43 3001.55,-24.93 3001.55,-31.93"/>
<text text-anchor="middle" x="2987.1" y="-32.23" font-family="Times,serif" font-size="14.00">&#39;[&#39;</text>
</g>
<!-- 28 -->
<g id="node31" class="node">
<title>28</title>
<ellipse fill="none" stroke="black" cx="3248.1" cy="-28.43" rx="23.5" ry="23.5"/>
<text text-anchor="middle" x="3248.1" y="-24.73" font-family="Times,serif" font-size="14.00">28</text>
</g>
<!-- 27&#45;&gt;28 -->
<g id="edge30" class="edge">
<title>27&#45;&gt;28</title>
<path fill="none" stroke="black" d="M3058.68,-28.43C3096.1,-28.43 3171.12,-28.43 3214.35,-28.43"/>
<polygon fill="black" stroke="black" points="3214.36,-31.93 3224.36,-28.43 3214.36,-24.93 3214.36,-31.93"/>
<text text-anchor="middle" x="3141.6" y="-32.23" font-family="Times,serif" font-size="14.00">&#39;0&#39;..&#39;9&#39; / push_digit</text>
</g>
<!-- 28&#45;&gt;27 -->
<g id="edge31" class="edge">
<title>28&#45;&gt;27</title>
<path fill="none" stroke="black" d="M3227.12,-16.94C3220.77,-13.87 3213.57,-10.98 3206.6,-9.43 3150.21,3.14 3132.99,3.14 3076.6,-9.43 3072.9,-10.25 3069.13,-11.46 3065.46,-12.86"/>
<polygon fill="black" stroke="black" points="3063.86,-9.74 3056.08,-16.94 3066.65,-16.16 3063.86,-9.74"/>
<text text-anchor="middle" x="3141.6" y="-13.23" font-family="Times,serif" font-size="14.00">&#39;,&#39; / add_track</text>
</g>
<!-- 28&#45;&gt;28 -->
<g id="edge32" class="edge">
<title>28&#45;&gt;28</title>
<path fill="none" stroke="black" d="M3232.71,-46.34C3228.38,-58.3 3233.51,-69.93 3248.1,-69.93 3258.47,-69.93 3264.06,-64.05 3264.87,-56.35"/>
<polygon fill="black" stroke="black" points="3268.32,-55.77 3263.49,-46.34 3261.39,-56.73 3268.32,-55.77"/>
<text text-anchor="middle" x="3248.1" y="-73.73" font-family="Times,serif" font-size="14.00">&#39;0&#39;..&#39;9&#39; / push_digit</text>
</g>
<!-- 29 -->
<g id="node32" class="node">
<title>29</title>
<ellipse fill="none" stroke="black" cx="3428.1" cy="-28.43" rx="23.5" ry="23.5"/>
<text text-anchor="middle" x="3428.1" y="-24.73" font-family="Times,serif" font-size="14.00">29</text>
</g>
<!-- 28&#45;&gt;29 -->
<g id="edge33" class="edge">
<title>28&#45;&gt;29</title>
<path fill="none" stroke="black" d="M3271.64,-28.43C3302.59,-28.43 3358.43,-28.43 3394.09,-28.43"/>
<polygon fill="black" stroke="black" points="3394.46,-31.93 3404.46,-28.43 3394.46,-24.93 3394.46,-31.93"/>
<text text-anchor="middle" x="3338.1" y="-32.23" font-family="Times,serif" font-size="14.00">&#39;]&#39; / add_track</text>
</g>
<!-- 29&#45;&gt;30 -->
<g id="edge34" class="edge">
<title>29&#45;&gt;30</title>
<path fill="none" stroke="black" d="M3451.74,-28.43C3464.3,-28.43 3480.23,-28.43 3494.51,-28.43"/>
<polygon fill="black" stroke="black" points="3494.55,-31.93 3504.55,-28.43 3494.55,-24.93 3494.55,-31.93"/>
<text text-anchor="middle" x="3478.1" y="-32.23" font-family="Times,serif" font-size="14.00">&#39;}&#39;</text>
</g>
</g>
</svg>
