<?xml version="1.0" encoding="UTF-8" standalone="no"?>
<!DOCTYPE svg PUBLIC "-//W3C//DTD SVG 1.1//EN"
 "http://www.w3.org/Graphics/SVG/1.1/DTD/svg11.dtd">
<!-- Generated by graphviz version 2.44.1 (0)
 -->
<!-- Title: http_request Pages: 1 -->
<svg width="4303pt" height="1388pt"
 viewBox="0.00 0.00 4302.60 1388.00" xmlns="http://www.w3.org/2000/svg" xmlns:xlink="http://www.w3.org/1999/xlink">
<g id="graph0" class="graph" transform="scale(1 1) rotate(0) translate(4 1384)">
<title>http_request</title>
<polygon fill="white" stroke="transparent" points="-4,4 -4,-1384 4298.6,-1384 4298.6,4 -4,4"/>
<!-- ENTRY -->
<g id="node1" class="node">
<title>ENTRY</title>
<ellipse fill="black" stroke="black" cx="1.8" cy="-274" rx="1.8" ry="1.8"/>
</g>
<!-- 1 -->
<g id="node4" class="node">
<title>1</title>
<ellipse fill="none" stroke="black" cx="99.1" cy="-255" rx="23.5" ry="23.5"/>
<text text-anchor="middle" x="99.1" y="-251.3" font-family="Times,serif" font-size="14.00">1</text>
</g>
<!-- ENTRY&#45;&gt;1 -->
<g id="edge72" class="edge">
<title>ENTRY&#45;&gt;1</title>
<path fill="none" stroke="black" d="M3.87,-273.79C9.98,-272.57 41.06,-266.37 65.88,-261.42"/>
<polygon fill="black" stroke="black" points="66.57,-264.85 75.7,-259.47 65.2,-257.99 66.57,-264.85"/>
<text text-anchor="middle" x="39.6" y="-273.8" font-family="Times,serif" font-size="14.00">IN</text>
</g>
<!-- en_1 -->
<g id="node2" class="node">
<title>en_1</title>
<ellipse fill="black" stroke="black" cx="1.8" cy="-236" rx="1.8" ry="1.8"/>
</g>
<!-- en_1&#45;&gt;1 -->
<g id="edge73" class="edge">
<title>en_1&#45;&gt;1</title>
<path fill="none" stroke="black" d="M4.16,-236.18C10.35,-237.02 36.44,-240.66 57.6,-245 60.3,-245.55 63.09,-246.16 65.89,-246.8"/>
<polygon fill="black" stroke="black" points="65.35,-250.27 75.89,-249.18 66.97,-243.46 65.35,-250.27"/>
<text text-anchor="middle" x="39.6" y="-248.8" font-family="Times,serif" font-size="14.00">main</text>
</g>
<!-- 33 -->
<g id="node3" class="node">
<title>33</title>
<ellipse fill="none" stroke="black" cx="2040.1" cy="-454" rx="23.5" ry="23.5"/>
<ellipse fill="none" stroke="black" cx="2040.1" cy="-454" rx="27.5" ry="27.5"/>
<text text-anchor="middle" x="2040.1" y="-450.3" font-family="Times,serif" font-size="14.00">33</text>
</g>
<!-- 2 -->
<g id="node5" class="node">
<title>2</title>
<ellipse fill="none" stroke="black" cx="201.1" cy="-288" rx="23.5" ry="23.5"/>
<text text-anchor="middle" x="201.1" y="-284.3" font-family="Times,serif" font-size="14.00">2</text>
</g>
<!-- 1&#45;&gt;2 -->
<g id="edge1" class="edge">
<title>1&#45;&gt;2</title>
<path fill="none" stroke="black" d="M121.8,-262.16C135.56,-266.7 153.58,-272.65 168.87,-277.69"/>
<polygon fill="black" stroke="black" points="167.85,-281.04 178.44,-280.85 170.04,-274.4 167.85,-281.04"/>
<text text-anchor="middle" x="150.1" y="-278.8" font-family="Times,serif" font-size="14.00">&#39;G&#39;</text>
</g>
<!-- 29 -->
<g id="node6" class="node">
<title>29</title>
<ellipse fill="none" stroke="black" cx="201.1" cy="-223" rx="23.5" ry="23.5"/>
<text text-anchor="middle" x="201.1" y="-219.3" font-family="Times,serif" font-size="14.00">29</text>
</g>
<!-- 1&#45;&gt;29 -->
<g id="edge2" class="edge">
<title>1&#45;&gt;29</title>
<path fill="none" stroke="black" d="M121.8,-248.06C135.56,-243.65 153.58,-237.89 168.87,-232.99"/>
<polygon fill="black" stroke="black" points="169.99,-236.31 178.44,-229.93 167.85,-229.64 169.99,-236.31"/>
<text text-anchor="middle" x="150.1" y="-245.8" font-family="Times,serif" font-size="14.00">&#39;P&#39;</text>
</g>
<!-- 3 -->
<g id="node7" class="node">
<title>3</title>
<ellipse fill="none" stroke="black" cx="303.1" cy="-288" rx="23.5" ry="23.5"/>
<text text-anchor="middle" x="303.1" y="-284.3" font-family="Times,serif" font-size="14.00">3</text>
</g>
<!-- 2&#45;&gt;3 -->
<g id="edge3" class="edge">
<title>2&#45;&gt;3</title>
<path fill="none" stroke="black" d="M224.79,-288C237.96,-288 254.78,-288 269.36,-288"/>
<polygon fill="black" stroke="black" points="269.5,-291.5 279.5,-288 269.5,-284.5 269.5,-291.5"/>
<text text-anchor="middle" x="252.1" y="-291.8" font-family="Times,serif" font-size="14.00">&#39;E&#39;</text>
</g>
<!-- 30 -->
<g id="node33" class="node">
<title>30</title>
<ellipse fill="none" stroke="black" cx="303.1" cy="-223" rx="23.5" ry="23.5"/>
<text text-anchor="middle" x="303.1" y="-219.3" font-family="Times,serif" font-size="14.00">30</text>
</g>
<!-- 29&#45;&gt;30 -->
<g id="edge68" class="edge">
<title>29&#45;&gt;30</title>
<path fill="none" stroke="black" d="M224.79,-223C237.96,-223 254.78,-223 269.36,-223"/>
<polygon fill="black" stroke="black" points="269.5,-226.5 279.5,-223 269.5,-219.5 269.5,-226.5"/>
<text text-anchor="middle" x="252.1" y="-226.8" font-family="Times,serif" font-size="14.00">&#39;O&#39;</text>
</g>
<!-- 4 -->
<g id="node8" class="node">
<title>4</title>
<ellipse fill="none" stroke="black" cx="469.1" cy="-287" rx="23.5" ry="23.5"/>
<text text-anchor="middle" x="469.1" y="-283.3" font-family="Times,serif" font-size="14.00">4</text>
</g>
<!-- 3&#45;&gt;4 -->
<g id="edge4" class="edge">
<title>3&#45;&gt;4</title>
<path fill="none" stroke="black" d="M326.9,-287.86C355.05,-287.69 403.13,-287.4 435.26,-287.2"/>
<polygon fill="black" stroke="black" points="435.51,-290.7 445.49,-287.14 435.47,-283.7 435.51,-290.7"/>
<text text-anchor="middle" x="353.6" y="-291.8" font-family="Times,serif" font-size="14.00">&#39;T&#39;</text>
</g>
<!-- 5 -->
<g id="node9" class="node">
<title>5</title>
<ellipse fill="none" stroke="black" cx="702.1" cy="-257" rx="23.5" ry="23.5"/>
<text text-anchor="middle" x="702.1" y="-253.3" font-family="Times,serif" font-size="14.00">5</text>
</g>
<!-- 4&#45;&gt;5 -->
<g id="edge5" class="edge">
<title>4&#45;&gt;5</title>
<path fill="none" stroke="black" d="M492.82,-285.63C528.68,-283.24 600.49,-277.52 660.6,-267 663.48,-266.5 666.45,-265.9 669.42,-265.26"/>
<polygon fill="black" stroke="black" points="670.41,-268.63 679.36,-262.95 668.82,-261.81 670.41,-268.63"/>
<text text-anchor="middle" x="566.6" y="-288.8" font-family="Times,serif" font-size="14.00">SP / handle_get</text>
</g>
<!-- 6 -->
<g id="node10" class="node">
<title>6</title>
<ellipse fill="none" stroke="black" cx="831.1" cy="-257" rx="23.5" ry="23.5"/>
<text text-anchor="middle" x="831.1" y="-253.3" font-family="Times,serif" font-size="14.00">6</text>
</g>
<!-- 5&#45;&gt;6 -->
<g id="edge6" class="edge">
<title>5&#45;&gt;6</title>
<path fill="none" stroke="black" d="M725.81,-257C745.76,-257 775.04,-257 797.5,-257"/>
<polygon fill="black" stroke="black" points="797.59,-260.5 807.59,-257 797.59,-253.5 797.59,-260.5"/>
<text text-anchor="middle" x="766.6" y="-260.8" font-family="Times,serif" font-size="14.00">SP..&#39;~&#39;</text>
</g>
<!-- 6&#45;&gt;6 -->
<g id="edge8" class="edge">
<title>6&#45;&gt;6</title>
<path fill="none" stroke="black" d="M821.95,-278.78C820.82,-289.25 823.87,-298.5 831.1,-298.5 835.84,-298.5 838.79,-294.52 839.93,-288.82"/>
<polygon fill="black" stroke="black" points="843.43,-288.88 840.25,-278.78 836.43,-288.66 843.43,-288.88"/>
<text text-anchor="middle" x="831.1" y="-302.3" font-family="Times,serif" font-size="14.00">SP..&#39;~&#39;</text>
</g>
<!-- 7 -->
<g id="node11" class="node">
<title>7</title>
<ellipse fill="none" stroke="black" cx="933.1" cy="-257" rx="23.5" ry="23.5"/>
<text text-anchor="middle" x="933.1" y="-253.3" font-family="Times,serif" font-size="14.00">7</text>
</g>
<!-- 6&#45;&gt;7 -->
<g id="edge7" class="edge">
<title>6&#45;&gt;7</title>
<path fill="none" stroke="black" d="M854.79,-257C867.96,-257 884.78,-257 899.36,-257"/>
<polygon fill="black" stroke="black" points="899.5,-260.5 909.5,-257 899.5,-253.5 899.5,-260.5"/>
<text text-anchor="middle" x="882.1" y="-260.8" font-family="Times,serif" font-size="14.00">&#39;\r&#39;</text>
</g>
<!-- 8 -->
<g id="node12" class="node">
<title>8</title>
<ellipse fill="none" stroke="black" cx="1038.1" cy="-257" rx="23.5" ry="23.5"/>
<text text-anchor="middle" x="1038.1" y="-253.3" font-family="Times,serif" font-size="14.00">8</text>
</g>
<!-- 7&#45;&gt;8 -->
<g id="edge9" class="edge">
<title>7&#45;&gt;8</title>
<path fill="none" stroke="black" d="M956.7,-257C970.66,-257 988.79,-257 1004.31,-257"/>
<polygon fill="black" stroke="black" points="1004.55,-260.5 1014.55,-257 1004.55,-253.5 1004.55,-260.5"/>
<text text-anchor="middle" x="985.6" y="-260.8" font-family="Times,serif" font-size="14.00">&#39;\n&#39;</text>
</g>
<!-- 9 -->
<g id="node13" class="node">
<title>9</title>
<ellipse fill="none" stroke="black" cx="1221.1" cy="-667" rx="23.5" ry="23.5"/>
<text text-anchor="middle" x="1221.1" y="-663.3" font-family="Times,serif" font-size="14.00">9</text>
</g>
<!-- 8&#45;&gt;9 -->
<g id="edge10" class="edge">
<title>8&#45;&gt;9</title>
<path fill="none" stroke="black" d="M1048.45,-278.18C1078.3,-345.8 1171.41,-556.71 1206.52,-636.24"/>
<polygon fill="black" stroke="black" points="1203.46,-637.97 1210.7,-645.7 1209.86,-635.14 1203.46,-637.97"/>
<text text-anchor="middle" x="1129.6" y="-570.8" font-family="Times,serif" font-size="14.00">SP..&#39;B&#39;, &#39;D&#39;..&#39;~&#39;</text>
</g>
<!-- 13 -->
<g id="node14" class="node">
<title>13</title>
<ellipse fill="none" stroke="black" cx="1810.1" cy="-385" rx="23.5" ry="23.5"/>
<text text-anchor="middle" x="1810.1" y="-381.3" font-family="Times,serif" font-size="14.00">13</text>
</g>
<!-- 8&#45;&gt;13 -->
<g id="edge11" class="edge">
<title>8&#45;&gt;13</title>
<path fill="none" stroke="black" d="M1061.79,-258.39C1140.73,-263.35 1410.67,-281.15 1632.6,-306 1683.01,-311.64 1700.17,-299.43 1745.6,-322 1762.65,-330.47 1777.92,-345.27 1789.22,-358.4"/>
<polygon fill="black" stroke="black" points="1786.66,-360.79 1795.72,-366.28 1792.06,-356.34 1786.66,-360.79"/>
<text text-anchor="middle" x="1349.6" y="-287.8" font-family="Times,serif" font-size="14.00">&#39;C&#39;</text>
</g>
<!-- 9&#45;&gt;9 -->
<g id="edge13" class="edge">
<title>9&#45;&gt;9</title>
<path fill="none" stroke="black" d="M1211.95,-688.78C1210.82,-699.25 1213.87,-708.5 1221.1,-708.5 1225.84,-708.5 1228.79,-704.52 1229.93,-698.82"/>
<polygon fill="black" stroke="black" points="1233.43,-698.88 1230.25,-688.78 1226.43,-698.66 1233.43,-698.88"/>
<text text-anchor="middle" x="1221.1" y="-712.3" font-family="Times,serif" font-size="14.00">SP..&#39;~&#39;</text>
</g>
<!-- 10 -->
<g id="node15" class="node">
<title>10</title>
<ellipse fill="none" stroke="black" cx="1349.6" cy="-667" rx="23.5" ry="23.5"/>
<text text-anchor="middle" x="1349.6" y="-663.3" font-family="Times,serif" font-size="14.00">10</text>
</g>
<!-- 9&#45;&gt;10 -->
<g id="edge12" class="edge">
<title>9&#45;&gt;10</title>
<path fill="none" stroke="black" d="M1244.72,-667C1264.47,-667 1293.4,-667 1315.71,-667"/>
<polygon fill="black" stroke="black" points="1315.75,-670.5 1325.75,-667 1315.75,-663.5 1315.75,-670.5"/>
<text text-anchor="middle" x="1272.1" y="-670.8" font-family="Times,serif" font-size="14.00">&#39;\r&#39;</text>
</g>
<!-- 13&#45;&gt;9 -->
<g id="edge20" class="edge">
<title>13&#45;&gt;9</title>
<path fill="none" stroke="black" d="M1788.49,-374.77C1728.43,-346.46 1549.46,-272.91 1417.6,-331 1293.98,-385.46 1244.16,-560.16 1228.3,-633.78"/>
<polygon fill="black" stroke="black" points="1224.81,-633.38 1226.21,-643.89 1231.66,-634.81 1224.81,-633.38"/>
<text text-anchor="middle" x="1466.1" y="-334.8" font-family="Times,serif" font-size="14.00">SP..&#39;n&#39;, &#39;p&#39;..&#39;~&#39;</text>
</g>
<!-- 13&#45;&gt;10 -->
<g id="edge19" class="edge">
<title>13&#45;&gt;10</title>
<path fill="none" stroke="black" d="M1786.41,-385.37C1710.2,-387.12 1465.56,-397.17 1417.6,-454 1384.8,-492.87 1414.96,-518.52 1399.6,-567 1391.67,-592.03 1378.37,-618.64 1367.62,-638.11"/>
<polygon fill="black" stroke="black" points="1364.44,-636.63 1362.59,-647.06 1370.54,-640.06 1364.44,-636.63"/>
<text text-anchor="middle" x="1582.6" y="-412.8" font-family="Times,serif" font-size="14.00">&#39;\r&#39;</text>
</g>
<!-- 14 -->
<g id="node18" class="node">
<title>14</title>
<ellipse fill="none" stroke="black" cx="2040.1" cy="-385" rx="23.5" ry="23.5"/>
<text text-anchor="middle" x="2040.1" y="-381.3" font-family="Times,serif" font-size="14.00">14</text>
</g>
<!-- 13&#45;&gt;14 -->
<g id="edge21" class="edge">
<title>13&#45;&gt;14</title>
<path fill="none" stroke="black" d="M1833.8,-385C1874.34,-385 1959.35,-385 2006.27,-385"/>
<polygon fill="black" stroke="black" points="2006.5,-388.5 2016.5,-385 2006.5,-381.5 2006.5,-388.5"/>
<text text-anchor="middle" x="1924.6" y="-388.8" font-family="Times,serif" font-size="14.00">&#39;o&#39;</text>
</g>
<!-- 11 -->
<g id="node16" class="node">
<title>11</title>
<ellipse fill="none" stroke="black" cx="1582.6" cy="-463" rx="23.5" ry="23.5"/>
<text text-anchor="middle" x="1582.6" y="-459.3" font-family="Times,serif" font-size="14.00">11</text>
</g>
<!-- 10&#45;&gt;11 -->
<g id="edge14" class="edge">
<title>10&#45;&gt;11</title>
<path fill="none" stroke="black" d="M1351.91,-643.52C1355.47,-604.18 1368.66,-525.4 1417.6,-486 1454.9,-455.97 1513.09,-455.28 1549.19,-458.46"/>
<polygon fill="black" stroke="black" points="1548.89,-461.95 1559.2,-459.5 1549.61,-454.99 1548.89,-461.95"/>
<text text-anchor="middle" x="1466.1" y="-489.8" font-family="Times,serif" font-size="14.00">&#39;\n&#39;</text>
</g>
<!-- 11&#45;&gt;9 -->
<g id="edge16" class="edge">
<title>11&#45;&gt;9</title>
<path fill="none" stroke="black" d="M1560.05,-455.87C1527.61,-446.4 1464.98,-433.18 1417.6,-454 1331.48,-491.85 1266.67,-588.45 1238.13,-637.48"/>
<polygon fill="black" stroke="black" points="1234.99,-635.92 1233.07,-646.34 1241.07,-639.4 1234.99,-635.92"/>
<text text-anchor="middle" x="1349.6" y="-551.8" font-family="Times,serif" font-size="14.00">SP..&#39;B&#39;, &#39;D&#39;..&#39;~&#39;</text>
</g>
<!-- 11&#45;&gt;13 -->
<g id="edge17" class="edge">
<title>11&#45;&gt;13</title>
<path fill="none" stroke="black" d="M1604.37,-453.47C1617.42,-447.77 1634.74,-440.74 1650.6,-436 1691.86,-423.68 1704.89,-431.04 1745.6,-417 1757.42,-412.92 1769.84,-407.06 1780.52,-401.46"/>
<polygon fill="black" stroke="black" points="1782.27,-404.5 1789.4,-396.67 1778.94,-398.34 1782.27,-404.5"/>
<text text-anchor="middle" x="1698.1" y="-439.8" font-family="Times,serif" font-size="14.00">&#39;C&#39;</text>
</g>
<!-- 12 -->
<g id="node17" class="node">
<title>12</title>
<ellipse fill="none" stroke="black" cx="1810.1" cy="-450" rx="23.5" ry="23.5"/>
<text text-anchor="middle" x="1810.1" y="-446.3" font-family="Times,serif" font-size="14.00">12</text>
</g>
<!-- 11&#45;&gt;12 -->
<g id="edge15" class="edge">
<title>11&#45;&gt;12</title>
<path fill="none" stroke="black" d="M1606.15,-462.09C1637.46,-460.79 1695.86,-458.19 1745.6,-455 1755.57,-454.36 1766.41,-453.55 1776.26,-452.77"/>
<polygon fill="black" stroke="black" points="1776.8,-456.24 1786.48,-451.94 1776.23,-449.26 1776.8,-456.24"/>
<text text-anchor="middle" x="1698.1" y="-464.8" font-family="Times,serif" font-size="14.00">&#39;\r&#39;</text>
</g>
<!-- 12&#45;&gt;33 -->
<g id="edge18" class="edge">
<title>12&#45;&gt;33</title>
<path fill="none" stroke="black" d="M1833.8,-450.4C1873.17,-451.09 1954.48,-452.52 2002.11,-453.35"/>
<polygon fill="black" stroke="black" points="2002.24,-456.85 2012.3,-453.53 2002.37,-449.85 2002.24,-456.85"/>
<text text-anchor="middle" x="1924.6" y="-456.8" font-family="Times,serif" font-size="14.00">&#39;\n&#39; / 38:22</text>
</g>
<!-- 14&#45;&gt;9 -->
<g id="edge23" class="edge">
<title>14&#45;&gt;9</title>
<path fill="none" stroke="black" d="M2018.83,-374.41C1922.2,-325.52 1504.43,-132.58 1299.6,-338 1258.03,-379.68 1234.02,-558.11 1225.57,-633.34"/>
<polygon fill="black" stroke="black" points="1222.05,-633.34 1224.44,-643.66 1229.01,-634.1 1222.05,-633.34"/>
<text text-anchor="middle" x="1582.6" y="-253.8" font-family="Times,serif" font-size="14.00">SP..&#39;m&#39;, &#39;o&#39;..&#39;~&#39;</text>
</g>
<!-- 14&#45;&gt;10 -->
<g id="edge22" class="edge">
<title>14&#45;&gt;10</title>
<path fill="none" stroke="black" d="M2018.7,-395.08C2009.59,-400.47 1999.41,-407.9 1992.6,-417 1977.2,-437.6 1994.48,-455.69 1974.6,-472 1878.22,-551.08 1520.2,-468.18 1417.6,-539 1413.11,-542.1 1383.79,-600.09 1365.45,-636.94"/>
<polygon fill="black" stroke="black" points="1362.14,-635.75 1360.82,-646.26 1368.41,-638.86 1362.14,-635.75"/>
<text text-anchor="middle" x="1698.1" y="-512.8" font-family="Times,serif" font-size="14.00">&#39;\r&#39;</text>
</g>
<!-- 15 -->
<g id="node19" class="node">
<title>15</title>
<ellipse fill="none" stroke="black" cx="2263.1" cy="-473" rx="23.5" ry="23.5"/>
<text text-anchor="middle" x="2263.1" y="-469.3" font-family="Times,serif" font-size="14.00">15</text>
</g>
<!-- 14&#45;&gt;15 -->
<g id="edge24" class="edge">
<title>14&#45;&gt;15</title>
<path fill="none" stroke="black" d="M2062.29,-393.44C2101.64,-409.11 2186.14,-442.75 2231.63,-460.87"/>
<polygon fill="black" stroke="black" points="2230.39,-464.14 2240.97,-464.59 2232.98,-457.64 2230.39,-464.14"/>
<text text-anchor="middle" x="2149.6" y="-448.8" font-family="Times,serif" font-size="14.00">&#39;n&#39;</text>
</g>
<!-- 15&#45;&gt;9 -->
<g id="edge26" class="edge">
<title>15&#45;&gt;9</title>
<path fill="none" stroke="black" d="M2246.6,-455.89C2233.39,-441.93 2213.44,-422.25 2193.6,-408 2150.32,-376.93 2136.06,-374.15 2087.6,-352 1813.27,-226.63 1716.36,-202.53 1417.6,-244 1364.21,-251.41 1340.52,-236.91 1299.6,-272 1244.92,-318.89 1228.05,-546.41 1223.55,-633.24"/>
<polygon fill="black" stroke="black" points="1220.05,-633.18 1223.05,-643.34 1227.04,-633.53 1220.05,-633.18"/>
<text text-anchor="middle" x="1698.1" y="-236.8" font-family="Times,serif" font-size="14.00">SP..&#39;s&#39;, &#39;u&#39;..&#39;~&#39;</text>
</g>
<!-- 15&#45;&gt;10 -->
<g id="edge25" class="edge">
<title>15&#45;&gt;10</title>
<path fill="none" stroke="black" d="M2239.34,-475.68C2105.54,-491.45 1426.81,-571.65 1417.6,-577 1393.94,-590.76 1376.07,-616.52 1364.76,-636.97"/>
<polygon fill="black" stroke="black" points="1361.61,-635.45 1360.03,-645.92 1367.8,-638.72 1361.61,-635.45"/>
<text text-anchor="middle" x="1810.1" y="-534.8" font-family="Times,serif" font-size="14.00">&#39;\r&#39;</text>
</g>
<!-- 16 -->
<g id="node20" class="node">
<title>16</title>
<ellipse fill="none" stroke="black" cx="2493.6" cy="-546" rx="23.5" ry="23.5"/>
<text text-anchor="middle" x="2493.6" y="-542.3" font-family="Times,serif" font-size="14.00">16</text>
</g>
<!-- 15&#45;&gt;16 -->
<g id="edge27" class="edge">
<title>15&#45;&gt;16</title>
<path fill="none" stroke="black" d="M2285.6,-479.87C2326.17,-492.83 2414.18,-520.95 2461.31,-536"/>
<polygon fill="black" stroke="black" points="2460.4,-539.39 2470.99,-539.1 2462.53,-532.72 2460.4,-539.39"/>
<text text-anchor="middle" x="2379.1" y="-527.8" font-family="Times,serif" font-size="14.00">&#39;t&#39;</text>
</g>
<!-- 16&#45;&gt;9 -->
<g id="edge29" class="edge">
<title>16&#45;&gt;9</title>
<path fill="none" stroke="black" d="M2490.18,-522.72C2480.09,-439.27 2433.67,-160 2264.1,-160 1923.6,-160 1923.6,-160 1923.6,-160 1643.88,-160 1539.3,-97.82 1299.6,-242 1275.29,-256.62 1272.68,-267.49 1262.6,-294 1239.17,-355.64 1227.47,-553.11 1223.6,-632.99"/>
<polygon fill="black" stroke="black" points="1220.08,-633.3 1223.1,-643.45 1227.07,-633.63 1220.08,-633.3"/>
<text text-anchor="middle" x="1810.1" y="-162.8" font-family="Times,serif" font-size="14.00">SP..&#39;d&#39;, &#39;f&#39;..&#39;~&#39;</text>
</g>
<!-- 16&#45;&gt;10 -->
<g id="edge28" class="edge">
<title>16&#45;&gt;10</title>
<path fill="none" stroke="black" d="M2470.07,-545.66C2333.89,-543.89 1619.82,-538.41 1417.6,-615 1401.33,-621.16 1385.81,-632.71 1373.82,-643.36"/>
<polygon fill="black" stroke="black" points="1371.43,-640.8 1366.47,-650.16 1376.18,-645.94 1371.43,-640.8"/>
<text text-anchor="middle" x="1924.6" y="-557.8" font-family="Times,serif" font-size="14.00">&#39;\r&#39;</text>
</g>
<!-- 17 -->
<g id="node21" class="node">
<title>17</title>
<ellipse fill="none" stroke="black" cx="2720.1" cy="-581" rx="23.5" ry="23.5"/>
<text text-anchor="middle" x="2720.1" y="-577.3" font-family="Times,serif" font-size="14.00">17</text>
</g>
<!-- 16&#45;&gt;17 -->
<g id="edge30" class="edge">
<title>16&#45;&gt;17</title>
<path fill="none" stroke="black" d="M2516.95,-549.48C2556.87,-555.71 2640.58,-568.76 2686.77,-575.96"/>
<polygon fill="black" stroke="black" points="2686.42,-579.45 2696.84,-577.53 2687.5,-572.53 2686.42,-579.45"/>
<text text-anchor="middle" x="2608.1" y="-573.8" font-family="Times,serif" font-size="14.00">&#39;e&#39;</text>
</g>
<!-- 17&#45;&gt;9 -->
<g id="edge32" class="edge">
<title>17&#45;&gt;9</title>
<path fill="none" stroke="black" d="M2718.82,-557.52C2716.32,-462.82 2693.63,-114 2494.6,-114 1348.6,-114 1348.6,-114 1348.6,-114 1241.53,-114 1225.08,-512.95 1222.56,-633.14"/>
<polygon fill="black" stroke="black" points="1219.06,-633.17 1222.36,-643.24 1226.06,-633.31 1219.06,-633.17"/>
<text text-anchor="middle" x="1924.6" y="-117.8" font-family="Times,serif" font-size="14.00">SP..&#39;m&#39;, &#39;o&#39;..&#39;~&#39;</text>
</g>
<!-- 17&#45;&gt;10 -->
<g id="edge31" class="edge">
<title>17&#45;&gt;10</title>
<path fill="none" stroke="black" d="M2697.29,-586.7C2657.37,-596.62 2569.75,-616 2494.6,-616 2148.6,-616 2148.6,-616 2148.6,-616 1823.3,-616 1740.23,-611.38 1417.6,-653 1406.08,-654.49 1393.59,-656.88 1382.55,-659.27"/>
<polygon fill="black" stroke="black" points="1381.47,-655.92 1372.48,-661.53 1383.01,-662.75 1381.47,-655.92"/>
<text text-anchor="middle" x="2040.1" y="-618.8" font-family="Times,serif" font-size="14.00">&#39;\r&#39;</text>
</g>
<!-- 18 -->
<g id="node22" class="node">
<title>18</title>
<ellipse fill="none" stroke="black" cx="2941.6" cy="-648" rx="23.5" ry="23.5"/>
<text text-anchor="middle" x="2941.6" y="-644.3" font-family="Times,serif" font-size="14.00">18</text>
</g>
<!-- 17&#45;&gt;18 -->
<g id="edge33" class="edge">
<title>17&#45;&gt;18</title>
<path fill="none" stroke="black" d="M2743.03,-586.6C2773.44,-594.5 2830.06,-609.66 2877.6,-625 2888.26,-628.44 2899.81,-632.54 2910.08,-636.33"/>
<polygon fill="black" stroke="black" points="2908.86,-639.61 2919.45,-639.82 2911.3,-633.05 2908.86,-639.61"/>
<text text-anchor="middle" x="2831.6" y="-628.8" font-family="Times,serif" font-size="14.00">&#39;n&#39;</text>
</g>
<!-- 18&#45;&gt;9 -->
<g id="edge35" class="edge">
<title>18&#45;&gt;9</title>
<path fill="none" stroke="black" d="M2918.96,-654.4C2871.57,-668.12 2754.8,-700.2 2654.6,-714 2432.33,-744.62 2374.97,-743 2150.6,-743 1348.6,-743 1348.6,-743 1348.6,-743 1307.63,-743 1268.48,-713.34 1244.87,-691.08"/>
<polygon fill="black" stroke="black" points="1247.08,-688.35 1237.47,-683.87 1242.19,-693.36 1247.08,-688.35"/>
<text text-anchor="middle" x="2040.1" y="-746.8" font-family="Times,serif" font-size="14.00">SP..&#39;s&#39;, &#39;u&#39;..&#39;~&#39;</text>
</g>
<!-- 18&#45;&gt;10 -->
<g id="edge34" class="edge">
<title>18&#45;&gt;10</title>
<path fill="none" stroke="black" d="M2917.85,-649.03C2878,-650.75 2792.96,-654 2721.1,-654 2378.1,-654 2378.1,-654 2378.1,-654 1986.77,-654 1511.67,-663.54 1383.68,-666.28"/>
<polygon fill="black" stroke="black" points="1383.3,-662.78 1373.38,-666.5 1383.45,-669.78 1383.3,-662.78"/>
<text text-anchor="middle" x="2149.6" y="-658.8" font-family="Times,serif" font-size="14.00">&#39;\r&#39;</text>
</g>
<!-- 19 -->
<g id="node23" class="node">
<title>19</title>
<ellipse fill="none" stroke="black" cx="3152.6" cy="-713" rx="23.5" ry="23.5"/>
<text text-anchor="middle" x="3152.6" y="-709.3" font-family="Times,serif" font-size="14.00">19</text>
</g>
<!-- 18&#45;&gt;19 -->
<g id="edge36" class="edge">
<title>18&#45;&gt;19</title>
<path fill="none" stroke="black" d="M2965.23,-648.41C2994.99,-649.64 3048.44,-654.23 3090.6,-671 3103.2,-676.01 3115.77,-684.02 3126.2,-691.71"/>
<polygon fill="black" stroke="black" points="3124.35,-694.7 3134.41,-698.02 3128.61,-689.15 3124.35,-694.7"/>
<text text-anchor="middle" x="3048.1" y="-674.8" font-family="Times,serif" font-size="14.00">&#39;t&#39;</text>
</g>
<!-- 19&#45;&gt;9 -->
<g id="edge38" class="edge">
<title>19&#45;&gt;9</title>
<path fill="none" stroke="black" d="M3134.57,-728.2C3100.64,-756.85 3021.08,-816 2942.6,-816 2607.1,-816 2607.1,-816 2607.1,-816 2304.19,-816 2228.51,-824 1925.6,-824 1348.6,-824 1348.6,-824 1348.6,-824 1285.01,-824 1247.97,-744.93 1231.82,-699.02"/>
<polygon fill="black" stroke="black" points="1235.12,-697.85 1228.6,-689.49 1228.48,-700.09 1235.12,-697.85"/>
<text text-anchor="middle" x="2149.6" y="-825.8" font-family="Times,serif" font-size="14.00">SP..&#39;,&#39;, &#39;.&#39;..&#39;~&#39;</text>
</g>
<!-- 19&#45;&gt;10 -->
<g id="edge37" class="edge">
<title>19&#45;&gt;10</title>
<path fill="none" stroke="black" d="M3129.05,-710.68C3090.77,-706.94 3010.58,-700 2942.6,-700 2378.1,-700 2378.1,-700 2378.1,-700 1951.1,-700 1842.76,-717.57 1417.6,-678 1406.22,-676.94 1393.84,-675.1 1382.86,-673.23"/>
<polygon fill="black" stroke="black" points="1383.29,-669.75 1372.83,-671.45 1382.07,-676.65 1383.29,-669.75"/>
<text text-anchor="middle" x="2263.1" y="-703.8" font-family="Times,serif" font-size="14.00">&#39;\r&#39;</text>
</g>
<!-- 20 -->
<g id="node24" class="node">
<title>20</title>
<ellipse fill="none" stroke="black" cx="3275.1" cy="-794" rx="23.5" ry="23.5"/>
<text text-anchor="middle" x="3275.1" y="-790.3" font-family="Times,serif" font-size="14.00">20</text>
</g>
<!-- 19&#45;&gt;20 -->
<g id="edge39" class="edge">
<title>19&#45;&gt;20</title>
<path fill="none" stroke="black" d="M3175.27,-719.97C3192.14,-726.03 3215.64,-735.89 3233.6,-749 3240.8,-754.25 3247.68,-760.97 3253.65,-767.59"/>
<polygon fill="black" stroke="black" points="3251.05,-769.93 3260.22,-775.24 3256.36,-765.37 3251.05,-769.93"/>
<text text-anchor="middle" x="3224.1" y="-752.8" font-family="Times,serif" font-size="14.00">&#39;&#45;&#39;</text>
</g>
<!-- 20&#45;&gt;9 -->
<g id="edge41" class="edge">
<title>20&#45;&gt;9</title>
<path fill="none" stroke="black" d="M3263.72,-814.62C3245.93,-846.72 3206.36,-905 3153.6,-905 2607.1,-905 2607.1,-905 2607.1,-905 2404.21,-905 2353.49,-903 2150.6,-903 1348.6,-903 1348.6,-903 1348.6,-903 1257.89,-903 1231.97,-765.88 1224.77,-700.68"/>
<polygon fill="black" stroke="black" points="1228.23,-700.09 1223.73,-690.49 1221.26,-700.79 1228.23,-700.09"/>
<text text-anchor="middle" x="2263.1" y="-906.8" font-family="Times,serif" font-size="14.00">SP..&#39;K&#39;, &#39;M&#39;..&#39;~&#39;</text>
</g>
<!-- 20&#45;&gt;10 -->
<g id="edge40" class="edge">
<title>20&#45;&gt;10</title>
<path fill="none" stroke="black" d="M3252.01,-789.29C3227.93,-784.57 3188.21,-778 3153.6,-778 2607.1,-778 2607.1,-778 2607.1,-778 2304.19,-778 2228.51,-786 1925.6,-786 1581.6,-786 1581.6,-786 1581.6,-786 1498.24,-786 1414.88,-724.01 1374.94,-689.51"/>
<polygon fill="black" stroke="black" points="1377.14,-686.78 1367.32,-682.8 1372.51,-692.04 1377.14,-686.78"/>
<text text-anchor="middle" x="2379.1" y="-783.8" font-family="Times,serif" font-size="14.00">&#39;\r&#39;</text>
</g>
<!-- 21 -->
<g id="node25" class="node">
<title>21</title>
<ellipse fill="none" stroke="black" cx="3375.1" cy="-877" rx="23.5" ry="23.5"/>
<text text-anchor="middle" x="3375.1" y="-873.3" font-family="Times,serif" font-size="14.00">21</text>
</g>
<!-- 20&#45;&gt;21 -->
<g id="edge42" class="edge">
<title>20&#45;&gt;21</title>
<path fill="none" stroke="black" d="M3295.54,-805.6C3307.08,-812.87 3321.72,-822.76 3333.6,-833 3340.01,-838.53 3346.45,-845 3352.25,-851.25"/>
<polygon fill="black" stroke="black" points="3349.9,-853.88 3359.2,-858.97 3355.11,-849.2 3349.9,-853.88"/>
<text text-anchor="middle" x="3325.1" y="-836.8" font-family="Times,serif" font-size="14.00">&#39;L&#39;</text>
</g>
<!-- 21&#45;&gt;9 -->
<g id="edge44" class="edge">
<title>21&#45;&gt;9</title>
<path fill="none" stroke="black" d="M3365.36,-898.55C3351.4,-929.01 3321,-981 3276.1,-981 2830.6,-981 2830.6,-981 2830.6,-981 2528.37,-981 2452.83,-984 2150.6,-984 1348.6,-984 1348.6,-984 1348.6,-984 1285.49,-984 1288.52,-928.54 1262.6,-871 1237.22,-814.67 1227.68,-742.51 1224.14,-700.84"/>
<polygon fill="black" stroke="black" points="1227.61,-700.38 1223.34,-690.68 1220.63,-700.92 1227.61,-700.38"/>
<text text-anchor="middle" x="2379.1" y="-986.8" font-family="Times,serif" font-size="14.00">SP..&#39;d&#39;, &#39;f&#39;..&#39;~&#39;</text>
</g>
<!-- 21&#45;&gt;10 -->
<g id="edge43" class="edge">
<title>21&#45;&gt;10</title>
<path fill="none" stroke="black" d="M3352.06,-871.67C3332.3,-867.36 3302.43,-862 3276.1,-862 2607.1,-862 2607.1,-862 2607.1,-862 2304.21,-862 2228.49,-862 1925.6,-862 1581.6,-862 1581.6,-862 1581.6,-862 1480.14,-862 1400.19,-750.8 1367.12,-696.35"/>
<polygon fill="black" stroke="black" points="1369.97,-694.3 1361.85,-687.5 1363.96,-697.88 1369.97,-694.3"/>
<text text-anchor="middle" x="2493.6" y="-865.8" font-family="Times,serif" font-size="14.00">&#39;\r&#39;</text>
</g>
<!-- 22 -->
<g id="node26" class="node">
<title>22</title>
<ellipse fill="none" stroke="black" cx="3474.1" cy="-959" rx="23.5" ry="23.5"/>
<text text-anchor="middle" x="3474.1" y="-955.3" font-family="Times,serif" font-size="14.00">22</text>
</g>
<!-- 21&#45;&gt;22 -->
<g id="edge45" class="edge">
<title>21&#45;&gt;22</title>
<path fill="none" stroke="black" d="M3395.81,-888.17C3407.08,-894.98 3421.21,-904.23 3432.6,-914 3439.37,-919.8 3446.1,-926.7 3452.07,-933.33"/>
<polygon fill="black" stroke="black" points="3449.47,-935.68 3458.69,-940.91 3454.74,-931.07 3449.47,-935.68"/>
<text text-anchor="middle" x="3424.6" y="-917.8" font-family="Times,serif" font-size="14.00">&#39;e&#39;</text>
</g>
<!-- 22&#45;&gt;9 -->
<g id="edge47" class="edge">
<title>22&#45;&gt;9</title>
<path fill="none" stroke="black" d="M3464.74,-980.71C3451.21,-1011.72 3421.38,-1065 3376.1,-1065 3047.1,-1065 3047.1,-1065 3047.1,-1065 2750.65,-1065 2676.55,-1068 2380.1,-1068 1348.6,-1068 1348.6,-1068 1348.6,-1068 1271.73,-1068 1235.72,-796.61 1225.37,-700.36"/>
<polygon fill="black" stroke="black" points="1228.84,-699.87 1224.31,-690.29 1221.88,-700.6 1228.84,-699.87"/>
<text text-anchor="middle" x="2493.6" y="-1070.8" font-family="Times,serif" font-size="14.00">SP..&#39;m&#39;, &#39;o&#39;..&#39;~&#39;</text>
</g>
<!-- 22&#45;&gt;10 -->
<g id="edge46" class="edge">
<title>22&#45;&gt;10</title>
<path fill="none" stroke="black" d="M3450.93,-953.22C3431.38,-948.64 3402.04,-943 3376.1,-943 2719.1,-943 2719.1,-943 2719.1,-943 2466.43,-943 2403.27,-946 2150.6,-946 1581.6,-946 1581.6,-946 1581.6,-946 1454.57,-946 1384.19,-772.29 1360.14,-699.01"/>
<polygon fill="black" stroke="black" points="1363.44,-697.82 1357.06,-689.36 1356.77,-699.95 1363.44,-697.82"/>
<text text-anchor="middle" x="2608.1" y="-946.8" font-family="Times,serif" font-size="14.00">&#39;\r&#39;</text>
</g>
<!-- 23 -->
<g id="node27" class="node">
<title>23</title>
<ellipse fill="none" stroke="black" cx="3574.1" cy="-1062" rx="23.5" ry="23.5"/>
<text text-anchor="middle" x="3574.1" y="-1058.3" font-family="Times,serif" font-size="14.00">23</text>
</g>
<!-- 22&#45;&gt;23 -->
<g id="edge48" class="edge">
<title>22&#45;&gt;23</title>
<path fill="none" stroke="black" d="M3495.25,-969.86C3507.03,-976.86 3521.69,-986.74 3532.6,-998 3542.35,-1008.06 3550.99,-1020.83 3557.77,-1032.31"/>
<polygon fill="black" stroke="black" points="3554.81,-1034.19 3562.79,-1041.17 3560.9,-1030.74 3554.81,-1034.19"/>
<text text-anchor="middle" x="3524.1" y="-1001.8" font-family="Times,serif" font-size="14.00">&#39;n&#39;</text>
</g>
<!-- 23&#45;&gt;9 -->
<g id="edge50" class="edge">
<title>23&#45;&gt;9</title>
<path fill="none" stroke="black" d="M3554.18,-1075.2C3535.13,-1087.18 3504.42,-1103 3475.1,-1103 3047.1,-1103 3047.1,-1103 3047.1,-1103 2750.63,-1103 2676.57,-1111 2380.1,-1111 1348.6,-1111 1348.6,-1111 1348.6,-1111 1318.42,-1111 1316.31,-1089.12 1299.6,-1064 1274.27,-1025.93 1273.95,-1012.3 1262.6,-968 1238.26,-872.99 1227.91,-757.13 1224.07,-700.89"/>
<polygon fill="black" stroke="black" points="1227.55,-700.53 1223.4,-690.78 1220.57,-700.98 1227.55,-700.53"/>
<text text-anchor="middle" x="2608.1" y="-1112.8" font-family="Times,serif" font-size="14.00">SP..&#39;f&#39;, &#39;h&#39;..&#39;~&#39;</text>
</g>
<!-- 23&#45;&gt;10 -->
<g id="edge49" class="edge">
<title>23&#45;&gt;10</title>
<path fill="none" stroke="black" d="M3553.56,-1050.54C3534.28,-1040.33 3503.64,-1027 3475.1,-1027 2830.6,-1027 2830.6,-1027 2830.6,-1027 2630.37,-1027 2580.33,-1022 2380.1,-1022 1581.6,-1022 1581.6,-1022 1581.6,-1022 1428.98,-1022 1371.99,-788.63 1355.89,-700.32"/>
<polygon fill="black" stroke="black" points="1359.3,-699.53 1354.12,-690.29 1352.41,-700.75 1359.3,-699.53"/>
<text text-anchor="middle" x="2720.1" y="-1029.8" font-family="Times,serif" font-size="14.00">&#39;\r&#39;</text>
</g>
<!-- 24 -->
<g id="node28" class="node">
<title>24</title>
<ellipse fill="none" stroke="black" cx="3674.1" cy="-1088" rx="23.5" ry="23.5"/>
<text text-anchor="middle" x="3674.1" y="-1084.3" font-family="Times,serif" font-size="14.00">24</text>
</g>
<!-- 23&#45;&gt;24 -->
<g id="edge51" class="edge">
<title>23&#45;&gt;24</title>
<path fill="none" stroke="black" d="M3597.34,-1067.9C3610.33,-1071.35 3626.95,-1075.76 3641.31,-1079.57"/>
<polygon fill="black" stroke="black" points="3640.72,-1083.03 3651.29,-1082.21 3642.52,-1076.27 3640.72,-1083.03"/>
<text text-anchor="middle" x="3624.1" y="-1079.8" font-family="Times,serif" font-size="14.00">&#39;g&#39;</text>
</g>
<!-- 24&#45;&gt;9 -->
<g id="edge53" class="edge">
<title>24&#45;&gt;9</title>
<path fill="none" stroke="black" d="M3668.65,-1110.98C3659.26,-1151.86 3633.29,-1233 3575.1,-1233 1348.6,-1233 1348.6,-1233 1348.6,-1233 1238.89,-1233 1224.3,-822.85 1222.38,-700.84"/>
<polygon fill="black" stroke="black" points="1225.88,-700.55 1222.24,-690.6 1218.88,-700.65 1225.88,-700.55"/>
<text text-anchor="middle" x="2720.1" y="-1236.8" font-family="Times,serif" font-size="14.00">SP..&#39;s&#39;, &#39;u&#39;..&#39;~&#39;</text>
</g>
<!-- 24&#45;&gt;10 -->
<g id="edge52" class="edge">
<title>24&#45;&gt;10</title>
<path fill="none" stroke="black" d="M3672.57,-1064.16C3669.44,-935.82 3650.69,-333 3575.1,-333 1923.6,-333 1923.6,-333 1923.6,-333 1809.89,-333 1495.97,-326.62 1417.6,-409 1393.24,-434.6 1409.52,-533.08 1399.6,-567 1392.23,-592.2 1378.89,-618.8 1367.99,-638.22"/>
<polygon fill="black" stroke="black" points="1364.81,-636.73 1362.87,-647.15 1370.89,-640.21 1364.81,-636.73"/>
<text text-anchor="middle" x="2831.6" y="-336.8" font-family="Times,serif" font-size="14.00">&#39;\r&#39;</text>
</g>
<!-- 25 -->
<g id="node29" class="node">
<title>25</title>
<ellipse fill="none" stroke="black" cx="3771.1" cy="-1122" rx="23.5" ry="23.5"/>
<text text-anchor="middle" x="3771.1" y="-1118.3" font-family="Times,serif" font-size="14.00">25</text>
</g>
<!-- 24&#45;&gt;25 -->
<g id="edge54" class="edge">
<title>24&#45;&gt;25</title>
<path fill="none" stroke="black" d="M3696.66,-1095.72C3709.17,-1100.19 3725.14,-1105.91 3739,-1110.87"/>
<polygon fill="black" stroke="black" points="3738.03,-1114.24 3748.63,-1114.32 3740.39,-1107.65 3738.03,-1114.24"/>
<text text-anchor="middle" x="3722.6" y="-1110.8" font-family="Times,serif" font-size="14.00">&#39;t&#39;</text>
</g>
<!-- 25&#45;&gt;9 -->
<g id="edge56" class="edge">
<title>25&#45;&gt;9</title>
<path fill="none" stroke="black" d="M3769.31,-1098.35C3763.83,-939.83 3730.24,-38 3675.1,-38 1348.6,-38 1348.6,-38 1348.6,-38 1226.04,-38 1220.71,-502.8 1221.63,-633.3"/>
<polygon fill="black" stroke="black" points="1218.13,-633.52 1221.72,-643.49 1225.13,-633.46 1218.13,-633.52"/>
<text text-anchor="middle" x="2831.6" y="-41.8" font-family="Times,serif" font-size="14.00">SP..&#39;g&#39;, &#39;i&#39;..&#39;~&#39;</text>
</g>
<!-- 25&#45;&gt;10 -->
<g id="edge55" class="edge">
<title>25&#45;&gt;10</title>
<path fill="none" stroke="black" d="M3749.45,-1131.44C3730.52,-1139.23 3701.51,-1149 3675.1,-1149 1581.6,-1149 1581.6,-1149 1581.6,-1149 1382.46,-1149 1354.86,-810.28 1351.15,-700.73"/>
<polygon fill="black" stroke="black" points="1354.64,-700.47 1350.85,-690.57 1347.64,-700.67 1354.64,-700.47"/>
<text text-anchor="middle" x="2941.6" y="-1152.8" font-family="Times,serif" font-size="14.00">&#39;\r&#39;</text>
</g>
<!-- 26 -->
<g id="node30" class="node">
<title>26</title>
<ellipse fill="none" stroke="black" cx="3871.1" cy="-1190" rx="23.5" ry="23.5"/>
<text text-anchor="middle" x="3871.1" y="-1186.3" font-family="Times,serif" font-size="14.00">26</text>
</g>
<!-- 25&#45;&gt;26 -->
<g id="edge57" class="edge">
<title>25&#45;&gt;26</title>
<path fill="none" stroke="black" d="M3791,-1135.11C3805.64,-1145.27 3826.13,-1159.49 3842.6,-1170.92"/>
<polygon fill="black" stroke="black" points="3841.05,-1174.1 3851.26,-1176.93 3845.04,-1168.35 3841.05,-1174.1"/>
<text text-anchor="middle" x="3821.1" y="-1163.8" font-family="Times,serif" font-size="14.00">&#39;h&#39;</text>
</g>
<!-- 26&#45;&gt;9 -->
<g id="edge59" class="edge">
<title>26&#45;&gt;9</title>
<path fill="none" stroke="black" d="M3864.13,-1212.77C3852.89,-1249.8 3824.84,-1319 3772.1,-1319 1348.6,-1319 1348.6,-1319 1348.6,-1319 1264.32,-1319 1283.95,-1231.53 1262.6,-1150 1240.28,-1064.76 1227.37,-795.73 1223.42,-700.68"/>
<polygon fill="black" stroke="black" points="1226.91,-700.33 1223,-690.48 1219.91,-700.61 1226.91,-700.33"/>
<text text-anchor="middle" x="2941.6" y="-1322.8" font-family="Times,serif" font-size="14.00">SP..&#39;9&#39;, &#39;;&#39;..&#39;~&#39;</text>
</g>
<!-- 26&#45;&gt;10 -->
<g id="edge58" class="edge">
<title>26&#45;&gt;10</title>
<path fill="none" stroke="black" d="M3847.53,-1190.72C3827.67,-1191.29 3797.97,-1192 3772.1,-1192 3047.1,-1192 3047.1,-1192 3047.1,-1192 2852.42,-1192 2803.78,-1187 2609.1,-1187 1581.6,-1187 1581.6,-1187 1581.6,-1187 1498.03,-1187 1465.19,-1163.7 1417.6,-1095 1373.2,-1030.91 1356.77,-789.92 1352.13,-700.59"/>
<polygon fill="black" stroke="black" points="1355.62,-700.28 1351.62,-690.47 1348.63,-700.63 1355.62,-700.28"/>
<text text-anchor="middle" x="3048.1" y="-1195.8" font-family="Times,serif" font-size="14.00">&#39;\r&#39;</text>
</g>
<!-- 27 -->
<g id="node31" class="node">
<title>27</title>
<ellipse fill="none" stroke="black" cx="3967.1" cy="-636" rx="23.5" ry="23.5"/>
<text text-anchor="middle" x="3967.1" y="-632.3" font-family="Times,serif" font-size="14.00">27</text>
</g>
<!-- 26&#45;&gt;27 -->
<g id="edge60" class="edge">
<title>26&#45;&gt;27</title>
<path fill="none" stroke="black" d="M3876.02,-1166.9C3890.79,-1079.88 3943.1,-771.57 3960.46,-669.27"/>
<polygon fill="black" stroke="black" points="3963.94,-669.64 3962.16,-659.2 3957.04,-668.47 3963.94,-669.64"/>
<text text-anchor="middle" x="3919.1" y="-949.8" font-family="Times,serif" font-size="14.00">&#39;:&#39;</text>
</g>
<!-- 27&#45;&gt;9 -->
<g id="edge63" class="edge">
<title>27&#45;&gt;9</title>
<path fill="none" stroke="black" d="M3965.14,-612.23C3960.2,-496.77 3935.23,0 3872.1,0 1348.6,0 1348.6,0 1348.6,0 1289.98,0 1279.43,-43.85 1262.6,-100 1232.41,-200.76 1224.41,-526.89 1222.59,-633.17"/>
<polygon fill="black" stroke="black" points="1219.08,-633.27 1222.42,-643.33 1226.08,-633.39 1219.08,-633.27"/>
<text text-anchor="middle" x="3048.1" y="-3.8" font-family="Times,serif" font-size="14.00">&#39;!&#39;..&#39;/&#39;, &#39;:&#39;..&#39;~&#39;</text>
</g>
<!-- 27&#45;&gt;10 -->
<g id="edge61" class="edge">
<title>27&#45;&gt;10</title>
<path fill="none" stroke="black" d="M3964.61,-612.28C3957.68,-506.62 3926.54,-84 3872.1,-84 3047.1,-84 3047.1,-84 3047.1,-84 2750.63,-84 2676.57,-76 2380.1,-76 1581.6,-76 1581.6,-76 1581.6,-76 1456.05,-76 1459.96,-187.81 1417.6,-306 1378.37,-415.46 1429.74,-454.7 1399.6,-567 1392.72,-592.63 1379.13,-619.52 1368.01,-638.96"/>
<polygon fill="black" stroke="black" points="1364.98,-637.2 1362.94,-647.6 1371.02,-640.74 1364.98,-637.2"/>
<text text-anchor="middle" x="3152.6" y="-87.8" font-family="Times,serif" font-size="14.00">&#39;\r&#39;</text>
</g>
<!-- 27&#45;&gt;27 -->
<g id="edge62" class="edge">
<title>27&#45;&gt;27</title>
<path fill="none" stroke="black" d="M3958.28,-658.2C3957.32,-668.5 3960.26,-677.5 3967.1,-677.5 3971.48,-677.5 3974.27,-673.81 3975.45,-668.44"/>
<polygon fill="black" stroke="black" points="3978.96,-668.35 3975.92,-658.2 3971.96,-668.03 3978.96,-668.35"/>
<text text-anchor="middle" x="3967.1" y="-681.3" font-family="Times,serif" font-size="14.00">SP</text>
</g>
<!-- 28 -->
<g id="node32" class="node">
<title>28</title>
<ellipse fill="none" stroke="black" cx="4213.1" cy="-1273" rx="23.5" ry="23.5"/>
<text text-anchor="middle" x="4213.1" y="-1269.3" font-family="Times,serif" font-size="14.00">28</text>
</g>
<!-- 27&#45;&gt;28 -->
<g id="edge64" class="edge">
<title>27&#45;&gt;28</title>
<path fill="none" stroke="black" d="M3976.5,-657.93C4012.94,-753.06 4157.45,-1130.32 4200.15,-1241.81"/>
<polygon fill="black" stroke="black" points="4196.89,-1243.08 4203.74,-1251.17 4203.43,-1240.57 4196.89,-1243.08"/>
<text text-anchor="middle" x="4090.1" y="-1169.8" font-family="Times,serif" font-size="14.00">&#39;0&#39;..&#39;9&#39; / content_length</text>
</g>
<!-- 28&#45;&gt;9 -->
<g id="edge66" class="edge">
<title>28&#45;&gt;9</title>
<path fill="none" stroke="black" d="M4193.1,-1285.6C4153.21,-1310.8 4057.06,-1365 3968.1,-1365 1348.6,-1365 1348.6,-1365 1348.6,-1365 1273.29,-1365 1278.01,-1292.72 1262.6,-1219 1222.27,-1026 1220.57,-787.76 1221.49,-700.79"/>
<polygon fill="black" stroke="black" points="1224.99,-700.76 1221.61,-690.71 1217.99,-700.67 1224.99,-700.76"/>
<text text-anchor="middle" x="3152.6" y="-1368.8" font-family="Times,serif" font-size="14.00">SP..&#39;/&#39;, &#39;:&#39;..&#39;~&#39;</text>
</g>
<!-- 28&#45;&gt;10 -->
<g id="edge65" class="edge">
<title>28&#45;&gt;10</title>
<path fill="none" stroke="black" d="M4189.56,-1273C4146.52,-1273 4049.65,-1273 3968.1,-1273 3047.1,-1273 3047.1,-1273 3047.1,-1273 2852.43,-1273 2803.77,-1276 2609.1,-1276 1581.6,-1276 1581.6,-1276 1581.6,-1276 1489.68,-1276 1463.81,-1229.46 1417.6,-1150 1372.89,-1073.12 1356.44,-797.05 1351.98,-700.57"/>
<polygon fill="black" stroke="black" points="1355.47,-700.33 1351.52,-690.49 1348.48,-700.64 1355.47,-700.33"/>
<text text-anchor="middle" x="3224.1" y="-1276.8" font-family="Times,serif" font-size="14.00">&#39;\r&#39;</text>
</g>
<!-- 28&#45;&gt;28 -->
<g id="edge67" class="edge">
<title>28&#45;&gt;28</title>
<path fill="none" stroke="black" d="M4194.3,-1287.46C4185.15,-1300.52 4191.42,-1314.5 4213.1,-1314.5 4229.53,-1314.5 4237.11,-1306.47 4235.84,-1296.9"/>
<polygon fill="black" stroke="black" points="4238.98,-1295.34 4231.9,-1287.46 4232.52,-1298.04 4238.98,-1295.34"/>
<text text-anchor="middle" x="4213.1" y="-1318.3" font-family="Times,serif" font-size="14.00">&#39;0&#39;..&#39;9&#39; / content_length</text>
</g>
<!-- 31 -->
<g id="node34" class="node">
<title>31</title>
<ellipse fill="none" stroke="black" cx="404.1" cy="-226" rx="23.5" ry="23.5"/>
<text text-anchor="middle" x="404.1" y="-222.3" font-family="Times,serif" font-size="14.00">31</text>
</g>
<!-- 30&#45;&gt;31 -->
<g id="edge69" class="edge">
<title>30&#45;&gt;31</title>
<path fill="none" stroke="black" d="M327.06,-223.7C339.9,-224.08 356.11,-224.58 370.27,-225.01"/>
<polygon fill="black" stroke="black" points="370.5,-228.51 380.6,-225.32 370.72,-221.52 370.5,-228.51"/>
<text text-anchor="middle" x="353.6" y="-228.8" font-family="Times,serif" font-size="14.00">&#39;S&#39;</text>
</g>
<!-- 32 -->
<g id="node35" class="node">
<title>32</title>
<ellipse fill="none" stroke="black" cx="566.6" cy="-227" rx="23.5" ry="23.5"/>
<text text-anchor="middle" x="566.6" y="-223.3" font-family="Times,serif" font-size="14.00">32</text>
</g>
<!-- 31&#45;&gt;32 -->
<g id="edge70" class="edge">
<title>31&#45;&gt;32</title>
<path fill="none" stroke="black" d="M427.76,-226.14C455.12,-226.31 501.36,-226.6 532.67,-226.79"/>
<polygon fill="black" stroke="black" points="533.04,-230.3 543.06,-226.86 533.08,-223.3 533.04,-230.3"/>
<text text-anchor="middle" x="469.1" y="-230.8" font-family="Times,serif" font-size="14.00">&#39;T&#39;</text>
</g>
<!-- 32&#45;&gt;5 -->
<g id="edge71" class="edge">
<title>32&#45;&gt;5</title>
<path fill="none" stroke="black" d="M589.64,-231.95C611.29,-236.82 644.54,-244.29 669.09,-249.81"/>
<polygon fill="black" stroke="black" points="668.5,-253.26 679.02,-252.04 670.03,-246.43 668.5,-253.26"/>
<text text-anchor="middle" x="650.6" y="-251.8" font-family="Times,serif" font-size="14.00">SP</text>
</g>
</g>
</svg>
